<svg xmlns="http://www.w3.org/2000/svg" width="49" height="49" viewBox="0 0 49 49" fill="none">
  <path d="M40.5 8.88867H8.5C6.294 8.88867 4.5 10.6827 4.5 12.8887V36.8887C4.5 39.0947 6.294 40.8887 8.5 40.8887H40.5C42.706 40.8887 44.5 39.0947 44.5 36.8887V12.8887C44.5 10.6827 42.706 8.88867 40.5 8.88867ZM40.5 12.8887V13.9107L24.5 26.3567L8.5 13.9127V12.8887H40.5ZM8.5 36.8887V18.9767L23.272 30.4667C23.6222 30.7418 24.0547 30.8913 24.5 30.8913C24.9453 30.8913 25.3778 30.7418 25.728 30.4667L40.5 18.9767L40.504 36.8887H8.5Z" fill="white"/>
</svg>