<svg xmlns="http://www.w3.org/2000/svg" width="25" height="25" viewBox="0 0 25 25" fill="none">
  <path fill-rule="evenodd" clip-rule="evenodd" d="M16.5 4.13135H8.5C5.73858 4.13135 3.5 6.36993 3.5 9.13135V17.1313C3.5 19.8927 5.73858 22.1313 8.5 22.1313H16.5C19.2614 22.1313 21.5 19.8927 21.5 17.1313V9.13135C21.5 6.36993 19.2614 4.13135 16.5 4.13135ZM19.75 17.1313C19.7445 18.9239 18.2926 20.3758 16.5 20.3813H8.5C6.70735 20.3758 5.25549 18.9239 5.25 17.1313V9.13135C5.25549 7.3387 6.70735 5.88684 8.5 5.88135H16.5C18.2926 5.88684 19.7445 7.3387 19.75 9.13135V17.1313ZM17.25 9.38135C17.8023 9.38135 18.25 8.93363 18.25 8.38135C18.25 7.82907 17.8023 7.38135 17.25 7.38135C16.6977 7.38135 16.25 7.82907 16.25 8.38135C16.25 8.93363 16.6977 9.38135 17.25 9.38135ZM12.5 8.63135C10.0147 8.63135 8 10.6461 8 13.1313C8 15.6166 10.0147 17.6313 12.5 17.6313C14.9853 17.6313 17 15.6166 17 13.1313C17.0027 11.937 16.5294 10.7909 15.6849 9.94643C14.8404 9.10194 13.6943 8.62869 12.5 8.63135ZM9.75 13.1313C9.75 14.6501 10.9812 15.8813 12.5 15.8813C14.0188 15.8813 15.25 14.6501 15.25 13.1313C15.25 11.6125 14.0188 10.3813 12.5 10.3813C10.9812 10.3813 9.75 11.6125 9.75 13.1313Z" fill="white"/>
</svg>