<svg width="24" height="25" viewBox="0 0 24 25" fill="none" xmlns="http://www.w3.org/2000/svg">
<path fill-rule="evenodd" clip-rule="evenodd" d="M4.5 3.63135C3.67157 3.63135 3 4.30292 3 5.13135V20.1313C3 20.9597 3.67157 21.6313 4.5 21.6313H19.5C20.3284 21.6313 21 20.9597 21 20.1313V5.13135C21 4.30292 20.3284 3.63135 19.5 3.63135H4.5ZM8.52076 7.63407C8.52639 8.59032 7.81061 9.17954 6.96123 9.17532C6.16107 9.1711 5.46357 8.53407 5.46779 7.63548C5.47201 6.79032 6.13998 6.1111 7.00764 6.13079C7.88795 6.15048 8.52639 6.79595 8.52076 7.63407ZM12.2797 10.3931H9.75971H9.7583V18.9529H12.4217V18.7532C12.4217 18.3733 12.4214 17.9933 12.4211 17.6132C12.4203 16.5994 12.4194 15.5845 12.4246 14.571C12.426 14.3249 12.4372 14.069 12.5005 13.8341C12.7381 12.9566 13.5271 12.3899 14.4074 12.5292C14.9727 12.6177 15.3467 12.9454 15.5042 13.4784C15.6013 13.8116 15.6449 14.1702 15.6491 14.5176C15.6605 15.5652 15.6589 16.6128 15.6573 17.6605C15.6567 18.0303 15.6561 18.4003 15.6561 18.7701V18.9515H18.328V18.7462C18.328 18.2942 18.3278 17.8423 18.3275 17.3904C18.327 16.2609 18.3264 15.1314 18.3294 14.0015C18.3308 13.491 18.276 12.9876 18.1508 12.494C17.9638 11.7599 17.5771 11.1524 16.9485 10.7137C16.5027 10.4015 16.0133 10.2004 15.4663 10.1779C15.404 10.1754 15.3412 10.172 15.2781 10.1686C14.9984 10.1534 14.7141 10.1381 14.4467 10.192C13.6817 10.3453 13.0096 10.6954 12.5019 11.3127C12.4429 11.3835 12.3852 11.4554 12.2991 11.5627L12.2797 11.587V10.3931ZM5.68164 18.9557H8.33242V10.3987H5.68164V18.9557Z" fill="white"/>
</svg>
