<svg xmlns="http://www.w3.org/2000/svg" width="49" height="49" viewBox="0 0 49 49" fill="none">
<path d="M24.5001 28.8887C28.9121 28.8887 32.5001 25.3007 32.5001 20.8887C32.5001 16.4767 28.9121 12.8887 24.5001 12.8887C20.0881 12.8887 16.5001 16.4767 16.5001 20.8887C16.5001 25.3007 20.0881 28.8887 24.5001 28.8887ZM24.5001 16.8887C26.7061 16.8887 28.5001 18.6827 28.5001 20.8887C28.5001 23.0947 26.7061 24.8887 24.5001 24.8887C22.2941 24.8887 20.5001 23.0947 20.5001 20.8887C20.5001 18.6827 22.2941 16.8887 24.5001 16.8887ZM23.3402 44.5167C23.6787 44.7584 24.0842 44.8884 24.5002 44.8884C24.9161 44.8884 25.3217 44.7584 25.6602 44.5167C26.2682 44.0867 40.5582 33.7687 40.5002 20.8887C40.5002 12.0667 33.3222 4.88867 24.5002 4.88867C15.6782 4.88867 8.50018 12.0667 8.50018 20.8787C8.44218 33.7687 22.7322 44.0867 23.3402 44.5167ZM24.5002 8.88867C31.1182 8.88867 36.5002 14.2707 36.5002 20.8987C36.5422 29.7747 27.7242 37.7447 24.5002 40.3587C21.2782 37.7427 12.4582 29.7707 12.5002 20.8887C12.5002 14.2707 17.8822 8.88867 24.5002 8.88867Z" fill="white"/>
<path d="M24.5001 28.8887C28.9121 28.8887 32.5001 25.3007 32.5001 20.8887C32.5001 16.4767 28.9121 12.8887 24.5001 12.8887C20.0881 12.8887 16.5001 16.4767 16.5001 20.8887C16.5001 25.3007 20.0881 28.8887 24.5001 28.8887ZM24.5001 16.8887C26.7061 16.8887 28.5001 18.6827 28.5001 20.8887C28.5001 23.0947 26.7061 24.8887 24.5001 24.8887C22.2941 24.8887 20.5001 23.0947 20.5001 20.8887C20.5001 18.6827 22.2941 16.8887 24.5001 16.8887ZM23.3402 44.5167C23.6787 44.7584 24.0842 44.8884 24.5002 44.8884C24.9161 44.8884 25.3217 44.7584 25.6602 44.5167C26.2682 44.0867 40.5582 33.7687 40.5002 20.8887C40.5002 12.0667 33.3222 4.88867 24.5002 4.88867C15.6782 4.88867 8.50018 12.0667 8.50018 20.8787C8.44218 33.7687 22.7322 44.0867 23.3402 44.5167ZM24.5002 8.88867C31.1182 8.88867 36.5002 14.2707 36.5002 20.8987C36.5422 29.7747 27.7242 37.7447 24.5002 40.3587C21.2782 37.7427 12.4582 29.7707 12.5002 20.8887C12.5002 14.2707 17.8822 8.88867 24.5002 8.88867Z" fill="white"/>
</svg>