<svg xmlns="http://www.w3.org/2000/svg" width="200" height="56" viewBox="0 0 200 56" fill="none">
  <path fill-rule="evenodd" clip-rule="evenodd" d="M65.5517 19.2355L65.8029 19.684C66.1191 20.2289 66.2861 20.8476 66.2872 21.4776V35.3791C66.282 36.0086 66.1152 36.6262 65.8029 37.1728L65.5338 37.6213C65.2266 38.1703 64.7733 38.6234 64.2245 38.9307L52.1884 45.8903C51.6434 46.2065 51.0248 46.3735 50.3947 46.3747H49.8925C49.2615 46.3806 48.641 46.213 48.0987 45.8903L36.0449 38.9487C35.5076 38.6261 35.0579 38.1765 34.7354 37.6392L34.4843 37.1908C34.1682 36.6457 34.0011 36.0271 34 35.397V21.4955C34.0011 20.8656 34.1682 20.2468 34.4843 19.7019L34.7354 19.2535C35.0498 18.7099 35.5013 18.2583 36.0449 17.944L48.0808 10.9843C48.6258 10.6682 49.2444 10.5011 49.8745 10.5H50.3947C51.0248 10.5011 51.6434 10.6682 52.1884 10.9843L64.2245 17.9261C64.7711 18.2425 65.2279 18.6932 65.5517 19.2355ZM50.3947 14.0874H49.8745L39.3812 20.1502L50.1436 26.3565L60.906 20.1502L50.3947 14.0874ZM62.4306 35.8276L51.9373 41.8905V29.4778L62.6997 23.2536V35.3792L62.4306 35.8276ZM113.063 37.0475H109.344V17.4169H113.063V37.0475ZM79.5 37.4683H83.6586V30.3392H85.4667L89.8836 37.4683H94.3263L89.4445 29.6161C91.6142 28.9703 93.2415 27.498 93.2415 24.7084V24.605C93.2415 20.7823 90.4777 19 86.1124 19H79.5V37.4683ZM83.6586 27.498V22.2029H86.0091C88.0239 22.2029 89.1604 22.8487 89.1604 24.7342V24.8375C89.1604 26.6198 88.1014 27.498 86.0091 27.498H83.6586ZM101.081 37.3309C104.774 37.3309 107.099 35.7037 107.538 32.7849H103.999C103.767 33.9214 102.914 34.6705 101.184 34.6705C99.1433 34.6705 97.9294 33.379 97.826 31.1318H107.564V30.0986C107.564 25.2684 104.464 23.2279 100.977 23.2279C97.0511 23.2279 94.029 25.9917 94.029 30.2536V30.4602C94.029 34.7738 96.9994 37.3309 101.081 37.3309ZM97.8777 28.833C98.1618 26.9215 99.2983 25.8109 100.977 25.8109C102.76 25.8109 103.793 26.7924 103.922 28.833H97.8777ZM120.198 37.332C122.42 37.332 123.789 36.2988 124.486 34.9299V37.0479H128.206V23.5389H124.486V31.4687C124.486 33.4576 123.246 34.4391 121.671 34.4391C120.07 34.4391 119.32 33.5609 119.32 31.727V23.5389H115.601V32.2436C115.601 35.7822 117.564 37.332 120.198 37.332ZM134.491 37.0468H130.745V23.5378H134.491V25.6042C135.162 24.3385 136.608 23.2279 138.623 23.2279C140.406 23.2279 141.749 23.977 142.395 25.5784C143.479 23.9511 145.236 23.2279 146.94 23.2279C149.446 23.2279 151.383 24.8035 151.383 28.3939V37.0468H147.664V28.8071C147.664 27.0765 146.888 26.3016 145.545 26.3016C144.099 26.3016 142.937 27.2315 142.937 29.0654V37.0468H139.217V28.8071C139.217 27.0765 138.417 26.3016 137.099 26.3016C135.653 26.3016 134.491 27.2315 134.491 29.0654V37.0468ZM160.031 37.3309C163.726 37.3309 166.051 35.7037 166.489 32.7849H162.95C162.718 33.9214 161.865 34.6705 160.135 34.6705C158.094 34.6705 156.881 33.379 156.777 31.1318H166.515V30.0986C166.515 25.2684 163.415 23.2279 159.928 23.2279C156.002 23.2279 152.98 25.9917 152.98 30.2536V30.4602C152.98 34.7738 155.95 37.3309 160.031 37.3309ZM156.829 28.833C157.113 26.9215 158.25 25.8109 159.928 25.8109C161.711 25.8109 162.744 26.7924 162.873 28.833H156.829Z" fill="black"/>
</svg>