<svg xmlns="http://www.w3.org/2000/svg" width="25" height="25" viewBox="0 0 25 25" fill="none">
  <path d="M22.093 8.09168C21.9791 7.66908 21.7565 7.28368 21.4474 6.97385C21.1383 6.66401 20.7534 6.44054 20.331 6.32568C18.765 5.89568 12.5 5.88868 12.5 5.88868C12.5 5.88868 6.23602 5.88168 4.66902 6.29268C4.24695 6.41283 3.86285 6.63946 3.55359 6.95081C3.24433 7.26217 3.02031 7.6478 2.90302 8.07068C2.49002 9.63668 2.48602 12.8847 2.48602 12.8847C2.48602 12.8847 2.48202 16.1487 2.89202 17.6987C3.12202 18.5557 3.79702 19.2327 4.65502 19.4637C6.23702 19.8937 12.485 19.9007 12.485 19.9007C12.485 19.9007 18.75 19.9077 20.316 19.4977C20.7385 19.383 21.1238 19.1601 21.4337 18.8509C21.7436 18.5417 21.9674 18.1569 22.083 17.7347C22.497 16.1697 22.5 12.9227 22.5 12.9227C22.5 12.9227 22.52 9.65768 22.093 8.09168ZM10.496 15.8937L10.501 9.89368L15.708 12.8987L10.496 15.8937Z" fill="white"/>
</svg>